<?xml version="1.0" encoding="UTF-8"?>
<svg version="1.1" xmlns="http://www.w3.org/2000/svg" width="556" height="448">
<path d="M0 0 C5.21549681 4.84844875 10.21179716 9.78920944 14.82421875 15.21875 C22.13131326 23.67386407 30.73691975 30.1130552 40.07421875 36.15625 C41.12786621 36.8486377 42.18151367 37.54102539 43.26708984 38.25439453 C45.35703192 39.6275105 47.44908758 40.99741601 49.54345703 42.36376953 C67.60150437 54.14507158 84.94908151 66.22251844 100.83203125 80.890625 C102.99288298 82.85984156 105.19767099 84.73102374 107.44921875 86.59375 C119.11470592 96.82201082 126.60032802 109.20604289 130.38671875 124.21875 C137.13688165 123.62754582 137.13688165 123.62754582 143.38671875 121.21875 C144.98990836 118.99961321 146.349763 116.89188163 147.69921875 114.53125 C151.76023451 107.83347716 155.98634961 102.88213132 162.76171875 98.78125 C169.88835313 97.25411406 174.72898529 97.3922814 181.01171875 101.40625 C181.91921875 102.05207031 182.82671875 102.69789063 183.76171875 103.36328125 C186.12075786 105.03075681 188.44569907 106.28782927 191.01171875 107.59375 C193.19312743 108.97620653 194.18784808 109.76992261 195.23828125 112.140625 C196.26542072 117.82010205 194.57660437 122.42196062 192.39453125 127.640625 C191.40684989 130.16725175 190.83799946 132.54947261 190.38671875 135.21875 C190.99 135.58226562 191.59328125 135.94578125 192.21484375 136.3203125 C198.55029526 140.30551587 202.3898343 143.48043332 204.38671875 150.96875 C204.84122913 156.74435752 202.70178376 162.5051902 198.95703125 166.89453125 C193.29444676 171.86763006 186.88411839 172.82183764 179.69921875 173.90625 C178.85166016 174.04869141 178.00410156 174.19113281 177.13085938 174.33789062 C167.98293739 175.73616615 159.22318267 175.60152659 151.38671875 170.21875 C149.08400006 168.24092989 146.86091133 166.19469299 144.640625 164.125 C141.45524189 161.43094981 138.19795348 159.88183424 134.38671875 158.21875 C134.25716797 159.12753906 134.25716797 159.12753906 134.125 160.0546875 C131.64689587 174.8323727 123.37934143 185.05555318 111.33203125 193.6484375 C102.62158276 198.29246972 94.73660374 199.8102387 84.9296875 199.79296875 C83.78309158 199.80713333 82.63649567 199.82129791 81.45515442 199.83589172 C77.82807814 199.8774686 74.20149871 199.8929721 70.57421875 199.90625 C66.9293167 199.93538995 63.28453676 199.96998275 59.63972473 200.00874329 C57.38155165 200.03108034 55.1233032 200.04699045 52.86503601 200.05558777 C51.32732292 200.06613945 51.32732292 200.06613945 49.75854492 200.0769043 C48.86350754 200.08038376 47.96847015 200.08386322 47.04631042 200.08744812 C44.35434236 200.16501947 44.35434236 200.16501947 41.6091547 200.7074728 C38.43017544 201.21185509 35.38350244 201.42179005 32.16815186 201.53048706 C30.9578896 201.57177797 29.74762733 201.61306889 28.50069046 201.65561104 C26.5469356 201.71369344 26.5469356 201.71369344 24.55371094 201.77294922 C23.87471662 201.79391151 23.1957223 201.81487381 22.4961524 201.83647132 C7.30092053 202.29991996 -7.89188043 202.36698815 -23.09324932 202.3530755 C-26.88917278 202.3504553 -30.68509445 202.35291649 -34.48101807 202.35446167 C-40.8745569 202.35626249 -47.26808405 202.35393939 -53.66162109 202.34912109 C-60.07927212 202.34433791 -66.49689982 202.3442622 -72.91455078 202.34912109 C-104.14525163 202.37201398 -135.37574105 202.3554983 -166.60364532 201.89181137 C-169.06610828 201.85536691 -171.52860839 201.82133016 -173.99114227 201.79004288 C-185.58953766 201.63675269 -197.12886827 201.32240153 -208.68652344 200.29345703 C-209.55930058 200.21577024 -210.43207771 200.13808346 -211.33130264 200.05804253 C-227.07926994 198.50955891 -246.25992522 194.99027752 -257.61328125 183.21875 C-271.6630764 165.69755304 -277.39874663 147.68823708 -275.14453125 125.265625 C-272.62067642 103.30181376 -264.54329929 87.54326446 -252.05078125 69.65625 C-241.42945998 54.38106358 -235.12308274 40.47517792 -230.64453125 22.37890625 C-230.47168106 21.68094437 -230.29883087 20.98298248 -230.1207428 20.26387024 C-229.25712924 16.75995732 -228.41044494 13.2531641 -227.59155273 9.73852539 C-223.72611891 -6.59587743 -218.38444945 -21.50114707 -203.61328125 -30.78125 C-192.27685556 -36.14325687 -181.3872468 -38.12776059 -168.98828125 -38.90625 C-167.01976196 -39.0314502 -167.01976196 -39.0314502 -165.01147461 -39.15917969 C-110.96900935 -42.40437526 -42.95136906 -37.36045579 0 0 Z " fill="#753637" transform="translate(313.61328125,142.78125)"/>
<path d="M0 0 C0 0.99 0 1.98 0 3 C1.11181641 3.03867188 1.11181641 3.03867188 2.24609375 3.078125 C22.96390555 4.19389455 42.58509836 10.35113791 57 26 C68.76182031 39.33006301 73.50864321 57.69777463 72.8515625 75.21484375 C72.8145124 76.80529555 72.77942168 78.39579397 72.74609375 79.98632812 C72.6911102 82.4486668 72.62617398 84.90841041 72.52685547 87.36938477 C72.03650582 100.06071203 74.25165786 108.73940834 80 120 C81.32087092 123.1135998 82.52104961 126.26318952 83.6875 129.4375 C83.97584717 130.22189453 84.26419434 131.00628906 84.5612793 131.81445312 C87.38831946 139.7304835 89.36222939 147.75952666 91 156 C91.17732666 156.81823242 91.35465332 157.63646484 91.53735352 158.47949219 C93.02224358 165.76715026 93.34882532 172.82384128 93.3125 180.25 C93.30512817 182.03398193 93.30512817 182.03398193 93.29760742 183.85400391 C93.08249591 200.01053299 90.44348159 217.70660466 79 230 C74.05070537 234.58715112 69.28248653 236.11038669 62.6875 237.125 C61.61886719 237.29257812 60.55023438 237.46015625 59.44921875 237.6328125 C58.64097656 237.75398437 57.83273438 237.87515625 57 238 C57 238.99 57 239.98 57 241 C37.94922658 241.15833017 18.90141606 240.96389322 -0.14730835 240.68161011 C-2.72736649 240.64430482 -5.30746739 240.60983285 -7.88760376 240.57839966 C-73.48107056 239.76142472 -73.48107056 239.76142472 -91.87890625 224.19921875 C-104.35946825 211.25896754 -111.86477979 194.40150339 -112.375 176.4375 C-111.65373946 149.63065005 -103.54804708 130.07305605 -88.4375 108.4375 C-77.81617873 93.16231358 -71.50980149 79.25642792 -67.03125 61.16015625 C-66.85839981 60.46219437 -66.68554962 59.76423248 -66.50746155 59.04512024 C-65.64384799 55.54120732 -64.79716369 52.0344141 -63.97827148 48.51977539 C-60.11283766 32.18537257 -54.7711682 17.28010293 -40 8 C-35.75875092 5.99393501 -31.46729931 4.42351765 -27 3 C-26.31421875 2.76539062 -25.6284375 2.53078125 -24.921875 2.2890625 C-17.06159503 -0.06902149 -8.13668383 0 0 0 Z " fill="#F5B4B0" transform="translate(150,104)"/>
<path d="M0 0 C6.481409 5.53620352 6.481409 5.53620352 9.0703125 7.8515625 C9.74835938 8.45742187 10.42640625 9.06328125 11.125 9.6875 C11.74632812 10.24824219 12.36765625 10.80898437 13.0078125 11.38671875 C18.43236983 15.77954655 22.2556155 16.43628496 29.0625 16.5625 C30.765804 16.62694142 32.46894132 16.69595071 34.171875 16.76953125 C34.99751953 16.8051416 35.82316406 16.84075195 36.67382812 16.87744141 C49.68724123 17.56307673 49.68724123 17.56307673 54.5 21.1875 C59.23473976 26.51408223 61.64712055 30.52780055 61.33984375 37.81640625 C61 40 61 40 59.5 43.4375 C56.67191553 50.15420062 57.35853207 57.27626344 60 64 C61.84949366 67.43477395 63.89622225 70.71629916 66 74 C66.48855469 74.80179687 66.97710937 75.60359375 67.48046875 76.4296875 C71.42187662 82.70635312 76.01828942 88.08543391 83 91 C89.11465089 91.87029227 93.53253495 90.62438323 99 88 C99.99 88 100.98 88 102 88 C107.37429656 100.19840335 107.37429656 100.19840335 107 106 C105.23021888 108.26780998 103.27713094 110.08779179 101.13671875 112.0078125 C95.82491199 116.96031972 93.56465156 122.72924406 91.67578125 129.609375 C89.99395933 135.55894154 87.77093632 141.60434634 82.33984375 145.0546875 C76.57433573 147.92077819 70.39657564 149.20043833 64.11645508 150.42993164 C57.46708999 151.82052388 53.01007135 154.8549621 48.1875 159.625 C41.09289913 165.86611505 32.48303128 165.27060291 23.453125 165.55859375 C19.7399691 166.03323924 17.92077578 166.69465538 15 169 C13.12464484 171.37758736 13.12464484 171.37758736 11.5625 174.125 C10.38208749 176.08761357 9.19347152 178.04530017 8 180 C7.41641724 181.16317749 7.41641724 181.16317749 6.82104492 182.34985352 C3.38888268 188.55812843 3.38888268 188.55812843 -0.36352539 189.75195312 C-3.23011889 189.96485942 -5.94499845 189.88642909 -8.8125 189.6875 C-9.83134277 189.64915039 -10.85018555 189.61080078 -11.89990234 189.57128906 C-14.93975125 189.43677825 -17.96616105 189.23172683 -21 189 C-21.83225098 188.94344238 -22.66450195 188.88688477 -23.52197266 188.82861328 C-36.87602513 187.85479208 -49.21832249 185.35788954 -60 177 C-58.6575568 173.54800321 -57.19446589 170.19993984 -55.5625 166.875 C-54.94568359 165.60269531 -54.94568359 165.60269531 -54.31640625 164.3046875 C-52.38569257 160.92450628 -50.86209047 159.35267337 -47.25 157.875 C-44 157 -44 157 -40.625 156.75 C-35.47569964 155.68462751 -32.224531 154.25973834 -29 150 C-25.20501388 139.86940679 -22.94337699 127.54095104 -25.83203125 116.94921875 C-26 114 -26 114 -24.2265625 111.16015625 C-19.64447472 108.09248731 -15.76968224 108.36767782 -10.375 108.4375 C-8.48705155 108.45408333 -6.59885345 108.45353652 -4.7109375 108.43359375 C-3.87868652 108.44447021 -3.04643555 108.45534668 -2.18896484 108.46655273 C0.15953478 108.18579797 0.15953478 108.18579797 1.72021484 106.14086914 C4.88463507 100.84731688 5.98501391 95.09013979 5 89 C2.93103434 84.50316648 0.0677746 82.31210874 -3.9375 79.5 C-7.9450304 76.67933424 -11.42871505 74.22425385 -14 70 C-14.42578125 66.3359375 -14.42578125 66.3359375 -14.3125 62.375 C-14.27576172 60.40660156 -14.27576172 60.40660156 -14.23828125 58.3984375 C-14 55 -14 55 -13 52 C-12.43314137 45.15409193 -12.93732239 40.12535522 -16 34 C-16 33.01 -16 32.02 -16 31 C-11.77777778 28 -11.77777778 28 -9 28 C-8.7525 27.443125 -8.505 26.88625 -8.25 26.3125 C-7 24 -7 24 -4.9375 21.4375 C-1.31559919 16.88091512 -1.67338627 11.82988195 -1.39453125 6.2734375 C-1.10159485 1.10159485 -1.10159485 1.10159485 0 0 Z " fill="#D05653" transform="translate(121,144)"/>
<path d="M0 0 C1.36125 0.96873047 1.36125 0.96873047 2.75 1.95703125 C5.10903911 3.62450681 7.43398032 4.88157927 10 6.1875 C12.18140868 7.56995653 13.17612933 8.36367261 14.2265625 10.734375 C15.25370197 16.41385205 13.56488562 21.01571062 11.3828125 26.234375 C10.39513114 28.76100175 9.82628071 31.14322261 9.375 33.8125 C9.97828125 34.17601562 10.5815625 34.53953125 11.203125 34.9140625 C17.53857651 38.89926587 21.37811555 42.07418332 23.375 49.5625 C23.82951038 55.33810752 21.69006501 61.0989402 17.9453125 65.48828125 C12.28272801 70.46138006 5.87239964 71.41558764 -1.3125 72.5 C-2.16005859 72.64244141 -3.00761719 72.78488281 -3.88085938 72.93164062 C-13.03159361 74.33034601 -21.78501654 74.19288081 -29.625 68.8125 C-31.92521918 66.84206135 -34.13140718 64.80860506 -36.3125 62.70703125 C-38.72641732 60.72941318 -40.63890457 60.05108756 -43.5625 59.0625 C-45.80859375 57.95703125 -45.80859375 57.95703125 -47.625 55.8125 C-49.18203468 50.04436376 -49.30966162 43.96769909 -49.47070312 38.02319336 C-49.62326813 35.83731341 -50.09163867 33.93133632 -50.625 31.8125 C-50.66388349 29.47949067 -50.6698635 27.14540199 -50.625 24.8125 C-49.408125 24.35875 -48.19125 23.905 -46.9375 23.4375 C-45.49814194 22.90079021 -44.06076724 22.35874303 -42.625 21.8125 C-41.8 21.58691406 -40.975 21.36132812 -40.125 21.12890625 C-36.62113062 19.28390003 -35.2151931 16.4534215 -33.3125 13.125 C-29.25148424 6.42722716 -25.02536914 1.47588132 -18.25 -2.625 C-11.12336562 -4.15213594 -6.28273346 -4.0139686 0 0 Z " fill="#C6BAAC" transform="translate(494.625,244.1875)"/>
<path d="M0 0 C3.62081961 2.41387974 3.88042919 3.75106541 5.1875 7.8125 C5.53167969 8.85019531 5.87585938 9.88789063 6.23046875 10.95703125 C6.97237183 13.89074952 7.43719655 16.00917812 7 19 C5.42578125 20.95703125 5.42578125 20.95703125 3.3125 22.8125 C-2.94357603 28.72592875 -6.05422676 34.34102428 -8.32421875 42.609375 C-10.00604067 48.55894154 -12.22906368 54.60434634 -17.66015625 58.0546875 C-23.42566427 60.92077819 -29.60342436 62.20043833 -35.88354492 63.42993164 C-42.53291001 64.82052388 -46.98992865 67.8549621 -51.8125 72.625 C-58.90710087 78.86611505 -67.51696872 78.27060291 -76.546875 78.55859375 C-80.2600309 79.03323924 -82.07922422 79.69465538 -85 82 C-86.87535516 84.37758736 -86.87535516 84.37758736 -88.4375 87.125 C-89.61791251 89.08761357 -90.80652848 91.04530017 -92 93 C-92.58358276 94.16317749 -92.58358276 94.16317749 -93.17895508 95.34985352 C-96.61111732 101.55812843 -96.61111732 101.55812843 -100.36352539 102.75195312 C-103.23011889 102.96485942 -105.94499845 102.88642909 -108.8125 102.6875 C-109.83134277 102.64915039 -110.85018555 102.61080078 -111.89990234 102.57128906 C-114.93975125 102.43677825 -117.96616105 102.23172683 -121 102 C-121.83225098 101.94344238 -122.66450195 101.88688477 -123.52197266 101.82861328 C-136.87602513 100.85479208 -149.21832249 98.35788954 -160 90 C-158.6575568 86.54800321 -157.19446589 83.19993984 -155.5625 79.875 C-154.94568359 78.60269531 -154.94568359 78.60269531 -154.31640625 77.3046875 C-152.57280171 74.25208608 -151.32784138 72.41371177 -147.90625 71.34765625 C-141.80022257 70.62405235 -137.48410205 71.4875442 -131.8359375 73.89453125 C-121.6912218 77.84901409 -108.27426334 79.35255265 -97.8125 75.625 C-92.71136009 73.18033606 -88.11689379 69.77610479 -83.46289062 66.58251953 C-78.80271782 63.42093529 -74.57368701 61.1147374 -69 60 C-68.13761719 59.82339844 -67.27523437 59.64679688 -66.38671875 59.46484375 C-61.86483374 58.63878898 -57.3433717 58.02022202 -52.76953125 57.57421875 C-41.43188701 56.45292698 -32.00207781 54.76314499 -24 46 C-19.98620717 39.44413837 -19.81834617 33.22140552 -19.8125 25.75 C-19.80025391 24.94175781 -19.78800781 24.13351563 -19.77539062 23.30078125 C-19.76342162 18.31369745 -20.30240699 13.84365272 -21.5690918 9.01660156 C-22 7 -22 7 -22 3 C-21.360625 3.165 -20.72125 3.33 -20.0625 3.5 C-12.89997384 4.66939203 -7.47713123 4.37350585 -1 1 C-0.67 0.67 -0.34 0.34 0 0 Z " fill="#C14B4D" transform="translate(221,231)"/>
<path d="M0 0 C1.875 0.25 1.875 0.25 4 1 C6.54437172 4.59414746 6.26685288 8.21936893 6.25 12.5 C6.25773437 14.46453125 6.25773437 14.46453125 6.265625 16.46875 C6.01746448 19.76782508 5.55563417 21.20954337 4 24 C3.21186577 29.53741063 3.5618901 35.41243246 7 40 C9.40818105 42.13635814 11.91109252 44.07408853 14.484375 46.0078125 C18.32091777 49.04606842 21.79080025 52.58160051 24 57 C24.375 60.3125 24.375 60.3125 24 64 C21.8272578 66.63016161 20.05326212 68.47336894 17 70 C14.6060061 70.15631883 12.2095326 70.27561661 9.8125 70.375 C0.38756823 70.91455287 -5.30200111 73.29392907 -12 80 C-14.15893403 82.82068265 -16.02542027 85.78239242 -17.875 88.8125 C-18.83002417 90.34028467 -19.78571699 91.86765165 -20.7421875 93.39453125 C-21.1532373 94.06331299 -21.56428711 94.73209473 -21.98779297 95.42114258 C-23 97 -23 97 -24 98 C-29.39199626 98.35946642 -29.39199626 98.35946642 -31.69140625 97 C-35.10148527 95.52287609 -38.47717065 95.75050648 -42.125 95.8125 C-42.85332031 95.81314453 -43.58164062 95.81378906 -44.33203125 95.81445312 C-48.29588642 95.77859343 -48.29588642 95.77859343 -52 97 C-52.74720127 72.80935877 -37.19083133 52.34481013 -22.92333984 34.31689453 C-20.40412939 31.13048309 -17.93169426 27.98011234 -15.73828125 24.55859375 C-13.78264688 21.68007575 -11.95635749 20.74349288 -9 19 C-6.02998521 15.23036585 -5.02730119 10.97451472 -3.84375 6.40234375 C-2.93824483 3.8241693 -1.73818823 2.09065418 0 0 Z " fill="#CF5753" transform="translate(99,179)"/>
<path d="M0 0 C0.66 0.33 1.32 0.66 2 1 C7.06344153 16.43056086 9.53254855 36.71105659 3 52 C2.51273438 53.16015625 2.02546875 54.3203125 1.5234375 55.515625 C-1.58154093 62.47675691 -5.04720169 69.2443004 -12 73 C-18.20933193 74.91160655 -24.3556528 75.58060791 -30.8125 76.125 C-31.73353516 76.21136719 -32.65457031 76.29773438 -33.60351562 76.38671875 C-40.08240257 76.9579852 -46.49800692 77.09936339 -53 77 C-51.01645562 69.30524838 -47.98187457 62.86694537 -44 56 C-42.21192967 52.42385934 -43.28097004 48.08295982 -43.55078125 44.1640625 C-43 41 -43 41 -40.45703125 38.6171875 C-35.43054641 36.26581493 -30.9298942 36.51241432 -25.4609375 36.46875 C-21.99063284 36.27606469 -21.99063284 36.27606469 -19.640625 34.29296875 C-17.83735262 31.77268092 -17.0950346 29.81842757 -16.375 26.8125 C-16.13394531 25.84570312 -15.89289063 24.87890625 -15.64453125 23.8828125 C-15.24390699 22.09092945 -14.86262959 20.29446557 -14.51171875 18.4921875 C-13.34398882 12.50122527 -11.83969753 8.13345151 -6.73828125 4.30078125 C-4.52273934 2.80868159 -2.28762891 1.37844306 0 0 Z " fill="#C14C4D" transform="translate(230,257)"/>
<path d="M0 0 C11.69820762 4.12143258 20.59009795 14.46873032 25.95703125 25.3125 C28.8411696 32.7442872 29.31232221 39.41315995 29.25 47.3125 C29.26160156 48.7655957 29.26160156 48.7655957 29.2734375 50.24804688 C29.26020535 55.20679354 28.9356391 59.85902175 27.984375 64.73046875 C26.30455156 73.36317314 26.88973642 78.89230394 31.0625 86.6875 C35.02804041 94.14009412 35.02804041 94.14009412 34.90625 97.875 C33.42547688 101.34715765 31.33206734 102.36425785 28 104 C22.91344377 104.82041229 20.21887828 104.53225942 16 101.5625 C7.90631484 94.77527583 1.01267562 87.46182039 -0.4453125 76.71875 C-0.91298892 66.87721143 1.1655041 58.03952054 3.86474609 48.60131836 C6.4775328 39.27359227 7.61204266 31.73094675 2.9375 22.875 C2.47138306 21.98506348 2.47138306 21.98506348 1.99584961 21.07714844 C-0.39412245 16.68243206 -3.20697685 12.99953989 -6.71484375 9.453125 C-8 8 -8 8 -8 6 C-7.05125 5.7525 -6.1025 5.505 -5.125 5.25 C-1.91306809 4.3142923 -1.91306809 4.3142923 -0.625 1.875 C-0.41875 1.25625 -0.2125 0.6375 0 0 Z " fill="#D05754" transform="translate(183,124)"/>
<path d="M0 0 C1 2 1 2 1.0625 5.1875 C2.11187331 9.45495145 2.74072213 9.88768459 6.0625 12.4375 C9.82502097 15.44481963 9.82502097 15.44481963 10.6328125 18.0078125 C10.75624638 22.64539961 9.66910129 26.27943456 7 30 C4.12098566 32.21502545 1.09584882 34.10672193 -2 36 C-2.33 36.33 -2.66 36.66 -3 37 C-2.91741698 41.68703928 -2.91741698 41.68703928 -0.55859375 45.5859375 C0.27478516 46.31683594 0.27478516 46.31683594 1.125 47.0625 C2.7578125 48.515625 2.7578125 48.515625 4 50 C4 53.3125 4 53.3125 3 56 C-1.96993171 58.48496586 -9.8621848 57.65765931 -15.19921875 56.5390625 C-19.27314488 54.92468618 -22.71134865 52.11902237 -26.10546875 49.40234375 C-29.77860716 46.68346398 -32.69248224 45.73480403 -37.25 45.375 C-38.14203125 45.30023438 -39.0340625 45.22546875 -39.953125 45.1484375 C-40.62859375 45.09945312 -41.3040625 45.05046875 -42 45 C-44.0601319 38.95694644 -45.12371581 34.43322204 -45 28 C-43.783125 27.54625 -42.56625 27.0925 -41.3125 26.625 C-39.87314194 26.08829021 -38.43576724 25.54624303 -37 25 C-36.175 24.77441406 -35.35 24.54882812 -34.5 24.31640625 C-30.99613062 22.47140003 -29.5901931 19.6409215 -27.6875 16.3125 C-23.62648424 9.61472716 -19.40036914 4.66338132 -12.625 0.5625 C-8.43914492 -0.33446895 -4.26247405 -0.14897968 0 0 Z " fill="#DCCFBE" transform="translate(489,241)"/>
<path d="M0 0 C-0.75 4.75 -0.75 4.75 -3 7 C-5.20477735 7.15045725 -7.41527727 7.22160956 -9.625 7.25 C-15.88738686 7.57563651 -15.88738686 7.57563651 -20.875 11 C-24.5957837 14.39863793 -28.15667967 14.50727277 -33 14.625 C-39.18714098 14.7878195 -44.00332603 15.09483248 -49 19 C-49.57234375 19.41507813 -50.1446875 19.83015625 -50.734375 20.2578125 C-55.51973611 24.61021237 -55.90475396 29.98904015 -56.33154297 36.13769531 C-56.77615866 42.17572217 -58.25957717 46.2160666 -62.5 50.5625 C-65.33460739 52.81162173 -68.34663521 54.02011824 -71.6875 55.375 C-75.45825824 56.97859692 -77.57611641 57.96222286 -79.1875 61.8125 C-79.455625 62.864375 -79.72375 63.91625 -80 65 C-80.33 65 -80.66 65 -81 65 C-76.38574438 16.82919955 -76.38574438 16.82919955 -61.3125 2.1875 C-44.59080805 -11.25236456 -19.03819597 -4.90895187 0 0 Z " fill="#D05854" transform="translate(172,119)"/>
<path d="M0 0 C0.99 0.495 0.99 0.495 2 1 C0.35 2.65 -1.3 4.3 -3 6 C-2.505 6.99 -2.505 6.99 -2 8 C-5.1739709 9.0579903 -7.7281961 9.2080861 -11.0625 9.375 C-17.0617805 9.7852647 -22.35362932 10.97342452 -28 13 C-22.97405615 21.79540173 -17.10376629 27.07351903 -7.32421875 30.16015625 C-2.42573694 31.2923036 2.43417329 31.20692976 7.4375 31.25 C14.50000118 31.42607344 19.8284113 31.65048048 25.28125 36.625 C27.44459902 38.35567922 29.28904692 38.62863656 32 39 C34.04977861 34.90044277 33.41378175 30.51577044 32.24609375 26.23828125 C30.40962637 20.95933777 28.36847479 16.45507955 25 12 C24.4225 11.21625 23.845 10.4325 23.25 9.625 C22.8375 9.08875 22.425 8.5525 22 8 C22.99 7.67 23.98 7.34 25 7 C32.53690216 16.78699673 38.08829723 24.34190869 37 37 C36.20124427 40.93510718 35.10355718 44.76597707 34 48.625 C30.4630404 61.91669395 28.1539352 74.28587966 35 87 C34.34 87 33.68 87 33 87 C32.67 87.66 32.34 88.32 32 89 C31.0115904 87.44333045 30.03464918 85.87937574 29.0625 84.3125 C28.51722656 83.44238281 27.97195312 82.57226562 27.41015625 81.67578125 C24.5151413 76.18247033 24.42414029 70.0945153 25 64 C25.98511802 61.6603447 26.98470459 59.32671865 28 57 C29.07220154 51.47560922 28.23397539 47.78377903 25.1875 43.0625 C22.05371906 38.67520669 19.31878512 36.83655601 14 35.9375 C10.08973083 35.30005953 6.29063676 34.94821244 2.3359375 34.8984375 C-7.70072078 34.75619348 -14.49831694 34.3927657 -22 27 C-22.84433594 26.18660156 -23.68867188 25.37320313 -24.55859375 24.53515625 C-26.1584542 22.95526286 -27.73659539 21.35286355 -29.28515625 19.72265625 C-29.85105469 19.15417969 -30.41695312 18.58570313 -31 18 C-31.33 18 -31.66 18 -32 18 C-32.03867188 19.50240234 -32.03867188 19.50240234 -32.078125 21.03515625 C-32.57523383 34.18459303 -32.57523383 34.18459303 -37 40 C-37.9590625 41.36125 -37.9590625 41.36125 -38.9375 42.75 C-41.12071458 45.13168863 -43.11789209 46.55894604 -46 48 C-46.66 48 -47.32 48 -48 48 C-47.71125 48.59425781 -47.4225 49.18851563 -47.125 49.80078125 C-43.86290724 57.0838564 -42.41689526 64.25068577 -45 72 C-45.86468617 81.52685613 -45.86468617 81.52685613 -43.1875 90.4375 C-41.80315133 91.75481508 -41.80315133 91.75481508 -40 93 C-39.11699219 93.64195312 -38.23398438 94.28390625 -37.32421875 94.9453125 C-35.41201009 96.31805037 -33.47912953 97.66261049 -31.5234375 98.97265625 C-28.2864541 101.57326675 -26.39881975 104.03105206 -25.56640625 108.140625 C-25.55532971 114.12195507 -26.99750297 118.81685731 -30 124 C-32.47741541 126.47741541 -33.23768307 126.24934013 -36.6484375 126.2734375 C-37.57140625 126.2940625 -38.494375 126.3146875 -39.4453125 126.3359375 C-41.39053751 126.36187383 -43.33588021 126.38016602 -45.28125 126.390625 C-50.78086307 126.49444437 -50.78086307 126.49444437 -55.7265625 128.6640625 C-57.46862264 131.85962066 -56.86149904 133.51464603 -56 137 C-55.36671605 144.52673542 -56.04882666 151.64743296 -57.625 159 C-57.76510498 159.71776611 -57.90520996 160.43553223 -58.04956055 161.17504883 C-59.65039579 167.96083372 -63.29654094 170.19769396 -69 174 C-70.61308688 174.36909615 -72.2408993 174.67673925 -73.875 174.9375 C-79.37050717 175.98337541 -79.37050717 175.98337541 -84 179 C-85.5490798 181.58179967 -86.82266057 184.23095029 -88 187 C-90 187 -92 187 -94 187 C-93.566875 186.484375 -93.13375 185.96875 -92.6875 185.4375 C-90.82503611 182.92570027 -90.82503611 182.92570027 -89.5 179.4375 C-87.48907638 174.82913337 -87.48907638 174.82913337 -85 173 C-81.84413373 172.25680965 -78.74150684 171.73190407 -75.53710938 171.27148438 C-71.01008932 170.51324217 -68.91653352 169.50664484 -66 166 C-64.92754175 163.54045374 -64.92754175 163.54045374 -64.296875 160.82421875 C-63.91015625 159.33438477 -63.91015625 159.33438477 -63.515625 157.81445312 C-63.13664062 156.26661133 -63.13664062 156.26661133 -62.75 154.6875 C-62.481875 153.66720703 -62.21375 152.64691406 -61.9375 151.59570312 C-60.59787572 146.30897158 -59.44018904 141.45815686 -60 136 C-60.99 135.01 -60.99 135.01 -62 134 C-62.99 134 -63.98 134 -65 134 C-65.47179687 134.94359375 -65.47179687 134.94359375 -65.953125 135.90625 C-66.84348993 137.68697985 -67.73550556 139.46688502 -68.62890625 141.24609375 C-69.48279219 142.9611638 -70.32592614 144.68168281 -71.15234375 146.41015625 C-73.79032258 151.89516129 -73.79032258 151.89516129 -76 153 C-77.87379605 153.07033769 -79.75001102 153.0843022 -81.625 153.0625 C-82.62789062 153.05347656 -83.63078125 153.04445313 -84.6640625 153.03515625 C-85.82035156 153.01775391 -85.82035156 153.01775391 -87 153 C-84.69583613 151.84791807 -82.45810709 150.78970248 -80.05078125 149.85546875 C-75.96830904 147.3725311 -74.46241762 144.41390497 -72.1875 140.3125 C-67.17027255 131.80229025 -61.99939913 124.59424119 -52 122 C-48.1830941 121.68091474 -44.38644562 121.56090616 -40.55859375 121.44140625 C-36.8707718 120.9839706 -34.93672749 120.22578787 -32 118 C-30.39254941 114.78509882 -30.59694758 112.5698929 -31 109 C-33.68228797 103.59145213 -38.00405274 100.09605495 -42.6875 96.4375 C-47.24682942 92.81357648 -49.67720617 90.69818881 -51 85 C-51.75538438 77.3549891 -51.75538438 77.3549891 -49.99609375 74.19921875 C-48.52806642 70.95804468 -48.73607855 68.03604831 -48.75 64.5 C-48.74484375 63.1903125 -48.7396875 61.880625 -48.734375 60.53125 C-48.97385466 57.34757928 -49.30351625 55.63897471 -51 53 C-51.99 53 -52.98 53 -54 53 C-54.66 53.66 -55.32 54.32 -56 55 C-56.99 54.34 -57.98 53.68 -59 53 C-58.9296875 51.22265625 -58.9296875 51.22265625 -58 49 C-55.70147835 47.63323201 -53.55199326 46.51535629 -51.125 45.4375 C-44.32862283 42.45536895 -44.32862283 42.45536895 -39.85546875 36.80078125 C-38.98233394 33.9421618 -38.68123107 31.25075971 -38.47021484 28.27636719 C-37.95914261 21.50742905 -37.1448713 16.26680591 -31.95703125 11.48046875 C-31.31121094 10.99191406 -30.66539063 10.50335938 -30 10 C-29.44699219 9.56300781 -28.89398438 9.12601563 -28.32421875 8.67578125 C-23.26145141 5.47647151 -17.64006116 5.51218044 -11.81079102 5.59008789 C-6.11447152 5.52284401 -3.8977355 3.83095187 0 0 Z " fill="#F4AFAA" transform="translate(153,127)"/>
<path d="M0 0 C6.09177228 0.08828655 9.078621 3.11080368 13.2734375 7.23046875 C16.90424595 11.23709772 19.77767954 14.71444864 21.6875 19.8125 C22.01105469 20.66070312 22.33460938 21.50890625 22.66796875 22.3828125 C23.83239105 25.60820761 24.65505874 28.26170318 24.6875 31.6875 C24.70167969 32.368125 24.71585938 33.04875 24.73046875 33.75 C24.5 35.6875 24.5 35.6875 22.5 38.6875 C18.64075906 38.15883686 16.84334734 37.2814309 14 34.6875 C8.29869898 30.6398647 2.13398469 30.99702377 -4.609375 31.00195312 C-15.8494404 30.9436713 -25.24023393 27.76657179 -33.39453125 19.84765625 C-37.5 15.29991218 -37.5 15.29991218 -37.5 11.6875 C-31.93281385 8.9855925 -27.08814572 7.47024525 -20.875 7.1875 C-12.41861554 6.77815908 -7.551299 0.53767161 0 0 Z " fill="#D05854" transform="translate(162.5,128.3125)"/>
<path d="M0 0 C0.99 0.33 1.98 0.66 3 1 C3.84003656 28.72120658 3.84003656 28.72120658 -4.0625 38.10546875 C-7.29909271 41.27028218 -10.84060387 44.03891446 -14.3828125 46.8515625 C-23.6886619 54.49069261 -28.31286323 64.16486143 -30 76 C-30.84304687 76.13277344 -31.68609375 76.26554687 -32.5546875 76.40234375 C-34.19824219 76.66724609 -34.19824219 76.66724609 -35.875 76.9375 C-37.51082031 77.19853516 -37.51082031 77.19853516 -39.1796875 77.46484375 C-41.93821546 77.85551159 -41.93821546 77.85551159 -44 79 C-44.74720127 54.80935877 -29.19083133 34.34481013 -14.92333984 16.31689453 C-12.40799327 13.13537031 -9.9375817 9.98955812 -7.74609375 6.57421875 C-5.80500943 3.71253068 -4.04458472 2.5634354 -1 1 C-0.67 0.67 -0.34 0.34 0 0 Z " fill="#C24C4E" transform="translate(91,197)"/>
<path d="M0 0 C2.86724686 0.57344937 3.8614515 0.8614515 6 3 C6.65278601 9.45822957 4.92657123 15.40549814 3.3125 21.625 C3.06822266 22.64851563 2.82394531 23.67203125 2.57226562 24.7265625 C1.12532805 30.35313493 0.01413874 34.57709006 -5 38 C-7.64808507 38.7509495 -9.93467494 39.2676912 -12.625 39.625 C-17.49136521 40.20943703 -17.49136521 40.20943703 -21.83203125 42.3046875 C-23.20427654 44.29650842 -24.14164588 46.26310741 -25.0625 48.5 C-26.21853373 51.28562344 -27.30923391 53.46385086 -29 56 C-31.69614338 54.98679962 -32.83582064 54.26371019 -34.37890625 51.78515625 C-39.06938018 40.99551821 -41.5577021 31.835678 -41 20 C-36.02881544 16.9408095 -31.71237352 16.20026771 -26 17 C-25.36449219 17.33 -24.72898437 17.66 -24.07421875 18 C-21.42813004 19.27570379 -19.36416842 19.30055441 -16.4375 19.3125 C-15.01244141 19.33763672 -15.01244141 19.33763672 -13.55859375 19.36328125 C-11.02869996 19.19445305 -11.02869996 19.19445305 -9.3515625 17.88671875 C-7.46244804 15.24960232 -6.24375461 12.4666345 -4.9375 9.5 C-3.43944448 6.11508066 -2.05493487 3.0824023 0 0 Z " fill="#D05854" transform="translate(88,260)"/>
<path d="M0 0 C2.8125 0.625 2.8125 0.625 5.8125 2.625 C5.8125 11.12311085 2.2935268 17.56615289 -2.01991272 24.68579102 C-2.77246256 25.93567738 -3.49741058 27.20281246 -4.18699646 28.48851013 C-7.03502966 33.25671828 -7.03502966 33.25671828 -10.10092163 34.2364502 C-12.42716662 34.43539293 -14.65589045 34.41322156 -16.98828125 34.30859375 C-18.2428437 34.2937368 -18.2428437 34.2937368 -19.52275085 34.27857971 C-22.18364867 34.23951675 -24.84035844 34.15172389 -27.5 34.0625 C-29.30788295 34.02737505 -31.11583084 33.99543809 -32.92382812 33.96679688 C-37.34665586 33.88978291 -41.76636901 33.76906751 -46.1875 33.625 C-46.12740608 30.87269852 -46.04037379 28.1257556 -45.9375 25.375 C-45.92332031 24.59769531 -45.90914062 23.82039063 -45.89453125 23.01953125 C-45.73357468 19.2531474 -45.63453302 17.22229623 -43.328125 14.140625 C-39.77895383 11.62770818 -36.79730199 11.47952087 -32.56640625 11.37890625 C-31.46619141 11.34603516 -30.36597656 11.31316406 -29.23242188 11.27929688 C-26.91481061 11.21820449 -24.59709635 11.16089952 -22.27929688 11.10742188 C-20.62704102 11.05618164 -20.62704102 11.05618164 -18.94140625 11.00390625 C-17.43042358 10.96632202 -17.43042358 10.96632202 -15.88891602 10.92797852 C-13.15227975 10.62104986 -11.49964407 10.08926023 -9.1875 8.625 C-7.65236335 6.68336875 -7.65236335 6.68336875 -6.3125 4.5 C-3.59709941 0.70531361 -3.59709941 0.70531361 0 0 Z " fill="#C14C4D" transform="translate(179.1875,300.375)"/>
<path d="M0 0 C0.66 0 1.32 0 2 0 C4.62942675 7.27544375 5.44139939 13.72931634 5.3125 21.4375 C5.31572266 22.39720703 5.31894531 23.35691406 5.32226562 24.34570312 C5.28583198 29.26424506 4.92271345 33.89146526 3.98046875 38.72265625 C2.30753313 47.35845468 2.88857114 52.89012706 7.0625 60.6875 C11.02804041 68.14009412 11.02804041 68.14009412 10.90625 71.875 C9.42547688 75.34715765 7.33206734 76.36425785 4 78 C-1.41404419 78.87323293 -3.97850816 78.38616856 -8.4375 75.1875 C-12.051612 72.32308638 -12.84120838 70.35213468 -13.38671875 65.70703125 C-14.37282035 52.93893649 -12.4188405 46.11600949 -6 35 C-4.83289659 32.66579318 -4.84621804 31.19875785 -4.7890625 28.59765625 C-4.76263672 27.71174805 -4.73621094 26.82583984 -4.70898438 25.91308594 C-4.68126953 24.97239258 -4.65355469 24.03169922 -4.625 23.0625 C-3.91011632 3.91011632 -3.91011632 3.91011632 0 0 Z " fill="#C24C4E" transform="translate(207,150)"/>
<path d="M0 0 C3.66060819 0.55483086 6.09443115 1.44801565 9.125 3.5625 C10.27548828 4.35914063 10.27548828 4.35914063 11.44921875 5.171875 C15.22335861 7.87677156 18.97946648 10.60509128 22.71484375 13.36328125 C27.90884414 17.08342854 33.28150088 16.3001603 39.5 16.375 C40.64726562 16.41238281 41.79453125 16.44976562 42.9765625 16.48828125 C51.71821887 16.57788821 58.27536323 14.91252076 65.08789062 9.27099609 C65.71888672 8.85156738 66.34988281 8.43213867 67 8 C67.99 8.33 68.98 8.66 70 9 C68.99119125 14.60449304 67.33740019 17.13898636 62.94921875 20.73828125 C57.79992173 24.07139335 52.26756581 24.78870568 46.3125 25.6875 C45.46494141 25.82994141 44.61738281 25.97238281 43.74414062 26.11914062 C34.59340639 27.51784601 25.83998346 27.38038081 18 22 C15.71825896 20.0453903 13.51803566 18.02105676 11.3203125 15.97265625 C7.83016175 13.00544055 4.07562068 11.07015654 0 9 C0 6.03 0 3.06 0 0 Z " fill="#A69486" transform="translate(447,291)"/>
<path d="M0 0 C1.875 1.75 1.875 1.75 3 4 C2.6269193 7.95126379 0.39647111 10.19325563 -2.125 13.125 C-5.16307488 16.72461479 -7.96268484 20.3232584 -10.5625 24.25 C-14.52871715 30.04252179 -19.42814444 35.23358649 -26 38 C-29.75375007 38.34125001 -32.38667762 38.22184001 -35.9375 36.9375 C-38 35 -38 35 -38.3125 31.3125 C-38.209375 30.219375 -38.10625 29.12625 -38 28 C-37.154375 27.81566406 -36.30875 27.63132812 -35.4375 27.44140625 C-26.87348362 25.25174297 -21.81863928 22.510348 -17 15 C-15.89357651 12.70147039 -14.92988355 10.39014907 -14 8.015625 C-11.32501485 2.62385805 -5.98992307 -0.73047842 0 0 Z " fill="#F1E9E1" transform="translate(483,245)"/>
<path d="M0 0 C0.01417969 0.88042969 0.02835938 1.76085937 0.04296875 2.66796875 C0.17544131 9.83064942 0.17544131 9.83064942 3.25 16.0625 C4.1575 16.701875 5.065 17.34125 6 18 C6.928125 18.763125 7.85625 19.52625 8.8125 20.3125 C9.534375 20.869375 10.25625 21.42625 11 22 C10.071875 22.391875 9.14375 22.78375 8.1875 23.1875 C4.65491092 25.19622712 3.75172883 26.41312669 2 30 C0.43162772 33.13674456 -1.05249626 36.07874439 -3 39 C-5.69614338 37.98679962 -6.83582064 37.26371019 -8.37890625 34.78515625 C-13.06938018 23.99551821 -15.5577021 14.835678 -15 3 C-9.8531808 -0.16727335 -5.841744 -0.35050464 0 0 Z " fill="#C24D4F" transform="translate(62,277)"/>
<path d="M0 0 C1.02626887 3.0788066 1.10161194 5.119356 1.0625 8.33984375 C1.05476563 9.40396484 1.04703125 10.46808594 1.0390625 11.56445312 C1.01342791 13.77799954 0.98739939 15.99154144 0.9609375 18.20507812 C0.91436249 24.68288533 1.17051582 31.00195136 1.87890625 37.44360352 C1.9974144 39.94541566 1.93350174 41.67950745 1 44 C-1.8359375 45.45703125 -1.8359375 45.45703125 -5.375 46.8125 C-11.03650898 49.07162276 -11.03650898 49.07162276 -14.3125 53.875 C-14.539375 54.90625 -14.76625 55.9375 -15 57 C-15.33 57 -15.66 57 -16 57 C-11.57298589 10.78391867 -11.57298589 10.78391867 0 0 Z " fill="#C34F50" transform="translate(107,127)"/>
<path d="M0 0 C0.33 0.66 0.66 1.32 1 2 C0.06820453 4.3812551 -0.94027059 6.67504232 -2 9 C-10.84686861 29.2174521 -15.31113144 54.50259058 -8 76 C-7.34 76.99 -6.68 77.98 -6 79 C-6 79.99 -6 80.98 -6 82 C-5.34 82 -4.68 82 -4 82 C-2.70519313 83.9794174 -1.48974893 86.01098763 -0.3125 88.0625 C6.39056195 99.3451989 13.70500698 104.68596736 26 109 C21.12441576 110.62519475 17.44129806 108.21741665 13 106 C0.75015538 98.82187736 -7.96710857 83.91433828 -12.03125 70.62890625 C-17.11070739 49.53504848 -13.69527827 24.39422256 -3.5 5.171875 C-2.40902811 3.39904568 -1.2200789 1.68657965 0 0 Z " fill="#ECA6A2" transform="translate(52,227)"/>
<path d="M0 0 C1.09658936 3.28976808 0.79953138 4.71303767 0 8 C0.6496875 8.38671875 1.299375 8.7734375 1.96875 9.171875 C2.8040625 9.69265625 3.639375 10.2134375 4.5 10.75 C5.3353125 11.26046875 6.170625 11.7709375 7.03125 12.296875 C7.6809375 12.85890625 8.330625 13.4209375 9 14 C9 15.32 9 16.64 9 18 C7.10489301 18.08160748 5.20875496 18.13946459 3.3125 18.1875 C1.72888672 18.23970703 1.72888672 18.23970703 0.11328125 18.29296875 C-3.66283227 17.93762557 -6.30050942 16.69949058 -9 14 C-9.18249581 10.15965336 -9.09359919 6.39737675 -6.6640625 3.29296875 C-2.77323487 0 -2.77323487 0 0 0 Z " fill="#A89789" transform="translate(504,270)"/>
<path d="M0 0 C7.57174173 -0.02323606 15.14347973 -0.0409723 22.71524906 -0.05181217 C26.23164701 -0.05701644 29.74802045 -0.06406918 33.2644043 -0.07543945 C37.31299059 -0.08844772 41.36155139 -0.09324852 45.41015625 -0.09765625 C46.66458023 -0.10281754 47.91900421 -0.10797882 49.21144104 -0.11329651 C54.91235805 -0.11366121 60.38848122 -0.04560215 66 1 C66 1.66 66 2.32 66 3 C50.45442507 3.1055203 34.9130605 3.10367685 19.37182617 2.68161011 C17.95996289 2.64394174 16.548009 2.60952563 15.13598633 2.57839966 C13.15811816 2.53344545 11.18059339 2.47408031 9.203125 2.4140625 C8.07551758 2.3826416 6.94791016 2.3512207 5.78613281 2.31884766 C3 2 3 2 0 0 Z " fill="#EFADA9" transform="translate(141,342)"/>
<path d="M0 0 C1.43804732 0.11853752 2.87541 0.24537135 4.3125 0.375 C5.51326172 0.47941406 5.51326172 0.47941406 6.73828125 0.5859375 C10 1 10 1 12.05419922 1.45019531 C23.01196634 3.79719967 34.27422565 3.70700471 45.43359375 4.10449219 C48.25817029 4.20780724 51.08214093 4.32220965 53.90625 4.4375 C54.77495728 4.46465088 55.64366455 4.49180176 56.53869629 4.51977539 C57.74640686 4.56992798 57.74640686 4.56992798 58.97851562 4.62109375 C59.68480103 4.6461499 60.39108643 4.67120605 61.11877441 4.69702148 C63 5 63 5 66 7 C43.47824495 7.33568312 21.82612452 6.96310564 0 1 C0 0.67 0 0.34 0 0 Z " fill="#F0ABA6" transform="translate(78,337)"/>
<path d="M0 0 C1.54564841 4.44373917 0.14899127 7.17909366 -1.64453125 11.34765625 C-7.61021407 23.02113935 -18.52735764 32.83664592 -31 37 C-33.859375 36.65234375 -33.859375 36.65234375 -36 36 C-32.44774408 33.63182939 -28.7503409 31.78310606 -24.9375 29.875 C-24.20466797 29.50246094 -23.47183594 29.12992187 -22.71679688 28.74609375 C-17.2396978 26 -17.2396978 26 -15 26 C-14.7525 25.38125 -14.505 24.7625 -14.25 24.125 C-13 22 -13 22 -10.9375 21.125 C-10.298125 20.75375 -9.65875 20.3825 -9 20 C-8.18415432 16.94091587 -8.18415432 16.94091587 -8 14 C-7.01 14 -6.02 14 -5 14 C-4.80083984 13.07767578 -4.80083984 13.07767578 -4.59765625 12.13671875 C-4.33275391 10.92435547 -4.33275391 10.92435547 -4.0625 9.6875 C-3.88847656 8.88699219 -3.71445312 8.08648437 -3.53515625 7.26171875 C-3 5 -3 5 -2 2 C-1.34 2 -0.68 2 0 2 C0 1.34 0 0.68 0 0 Z " fill="#5E2D2E" transform="translate(446,304)"/>
<path d="M0 0 C1.96114746 0.0012085 1.96114746 0.0012085 3.96191406 0.00244141 C19.05115702 0.07003195 33.98599733 0.97193021 48.75 4.1875 C48.75 4.5175 48.75 4.8475 48.75 5.1875 C46.95824958 5.06370633 45.16661045 4.93830316 43.375 4.8125 C42.09109375 4.72355469 40.8071875 4.63460937 39.484375 4.54296875 C35.99101811 4.29073808 32.50388135 3.99054994 29.015625 3.67578125 C12.89620197 2.26426431 -3.07358228 1.94955767 -19.25 2.1875 C-19.25 2.8475 -19.25 3.5075 -19.25 4.1875 C-21.23 4.1875 -23.21 4.1875 -25.25 4.1875 C-25.25 3.1975 -25.25 2.2075 -25.25 1.1875 C-16.82330489 0.24916094 -8.47519147 -0.00547069 0 0 Z " fill="#873F40" transform="translate(175.25,102.8125)"/>
<path d="M0 0 C0.80851913 0.00141495 1.61703827 0.0028299 2.45005798 0.00428772 C4.99669317 0.00982211 7.54323578 0.02236165 10.08984375 0.03515625 C11.83137893 0.04017975 13.5729155 0.04474116 15.31445312 0.04882812 C19.55211823 0.05976991 23.78971538 0.07698799 28.02734375 0.09765625 C28.02734375 0.75765625 28.02734375 1.41765625 28.02734375 2.09765625 C13.01537349 2.93054703 -1.93857044 3.23304217 -16.97265625 3.09765625 C-17.30265625 2.43765625 -17.63265625 1.77765625 -17.97265625 1.09765625 C-11.93681957 0.3408854 -6.07881521 -0.04112648 0 0 Z " fill="#5A2828" transform="translate(314.97265625,341.90234375)"/>
<path d="M0 0 C3.58383952 0.61547155 6.71348105 1.59206622 10.0625 3 C14.80624617 4.98813399 18.83216526 6.09649486 23.984375 6.31640625 C25.38623047 6.37924805 25.38623047 6.37924805 26.81640625 6.44335938 C27.78449219 6.48267578 28.75257813 6.52199219 29.75 6.5625 C30.73355469 6.60568359 31.71710938 6.64886719 32.73046875 6.69335938 C35.15351275 6.79922052 37.5766554 6.90130171 40 7 C40 7.33 40 7.66 40 8 C37.03 8 34.06 8 31 8 C31 8.66 31 9.32 31 10 C9.27911087 10.23681345 9.27911087 10.23681345 1.44921875 3.69140625 C0 2 0 2 0 0 Z " fill="#F4ADA8" transform="translate(131,152)"/>
<path d="M0 0 C0.66 0.33 1.32 0.66 2 1 C1.175 1.9075 0.35 2.815 -0.5 3.75 C-3.33296963 7.02395076 -5.66215508 10.48335696 -8 14.125 C-11.57471498 19.58618025 -14.61635941 23.8721198 -21 26 C-20.34 26.66 -19.68 27.32 -19 28 C-22.96 28.495 -22.96 28.495 -27 29 C-27.33 29.99 -27.66 30.98 -28 32 C-28 29.69 -28 27.38 -28 25 C-26.783125 24.54625 -25.56625 24.0925 -24.3125 23.625 C-22.87314194 23.08829021 -21.43576724 22.54624303 -20 22 C-19.17757813 21.77570313 -18.35515625 21.55140625 -17.5078125 21.3203125 C-13.97682896 19.46132117 -12.50296352 16.59580476 -10.5625 13.25 C-7.48070931 8.17843744 -4.51087773 3.93256007 0 0 Z " fill="#D0BFAF" transform="translate(472,244)"/>
<path d="M0 0 C6.25899088 5.52263901 12.37655036 14.04972325 13.265625 22.53515625 C13.26046875 23.36917969 13.2553125 24.20320313 13.25 25.0625 C13.25515625 25.89910156 13.2603125 26.73570312 13.265625 27.59765625 C12.98342949 30.14986564 12.2829823 31.79551057 11 34 C10.82984375 33.03320312 10.6596875 32.06640625 10.484375 31.0703125 C8.37836467 19.55913572 5.66241223 10.14381193 -2 1 C-1.34 0.67 -0.68 0.34 0 0 Z " fill="#EFA39D" transform="translate(177,134)"/>
<path d="M0 0 C1.15045743 3.34678526 0.89411302 4.84581114 -0.625 8 C-2.86081111 13.2168926 -4.27039867 18.50436312 -5.625 24 C-5.8307666 24.83015625 -6.0365332 25.6603125 -6.24853516 26.515625 C-7.65603172 32.31428292 -8.87032604 38.14127711 -10 44 C-10.66 44 -11.32 44 -12 44 C-12.33 44.66 -12.66 45.32 -13 46 C-12.32218315 39.25410848 -10.89730896 32.82174958 -9.25 26.25 C-8.98485596 25.1882959 -8.71971191 24.1265918 -8.4465332 23.03271484 C-6.36221606 14.9232337 -3.74827741 7.49655481 0 0 Z " fill="#EDA5A2" transform="translate(95,127)"/>
<path d="M0 0 C1.20681097 2.89774959 1.00903639 3.97572265 -0.109375 6.98046875 C-0.65078125 8.03878906 -1.1921875 9.09710938 -1.75 10.1875 C-2.28109375 11.25355469 -2.8121875 12.31960937 -3.359375 13.41796875 C-5 16 -5 16 -8 17 C-9.22520264 20.00847418 -9.22520264 20.00847418 -10 23 C-10.66 23 -11.32 23 -12 23 C-12.2578125 23.71671875 -12.515625 24.4334375 -12.78125 25.171875 C-14.0704103 28.16338801 -15.62208727 30.59227605 -17.5 33.25 C-18.1084375 34.12140625 -18.716875 34.9928125 -19.34375 35.890625 C-21 38 -21 38 -23 39 C-21.41722459 34.27880705 -18.79790671 30.63552247 -15.9375 26.625 C-12.05746808 21.08715969 -8.34957836 15.48919457 -4.875 9.6875 C-4.49722412 9.0598877 -4.11944824 8.43227539 -3.73022461 7.78564453 C-2.20396812 5.20842407 -0.95054239 2.85162718 0 0 Z " fill="#EBA4A0" transform="translate(76,188)"/>
<path d="M0 0 C1.98046875 1.15625 1.98046875 1.15625 4 3 C4.42578125 5.59375 4.42578125 5.59375 4.3125 8.5 C4.28800781 9.4590625 4.26351562 10.418125 4.23828125 11.40625 C4 14 4 14 3 17 C2.77674186 19.05893621 2.59294241 21.12233653 2.4375 23.1875 C2.35371094 24.27417969 2.26992187 25.36085937 2.18359375 26.48046875 C2.12300781 27.31191406 2.06242187 28.14335937 2 29 C1.67 29 1.34 29 1 29 C0.93941406 28.30132812 0.87882812 27.60265625 0.81640625 26.8828125 C0.73261719 25.97273438 0.64882812 25.06265625 0.5625 24.125 C0.48128906 23.22007812 0.40007812 22.31515625 0.31640625 21.3828125 C0.13010715 18.98889139 0.13010715 18.98889139 -1 17 C-0.91061582 14.11087268 -0.765952 11.25606745 -0.5625 8.375 C-0.51029297 7.57320312 -0.45808594 6.77140625 -0.40429688 5.9453125 C-0.27451629 3.96320897 -0.13790265 1.98155501 0 0 Z " fill="#EFA49F" transform="translate(105,182)"/>
<path d="M0 0 C1.4606285 2.64738916 2 3.89448334 2 7 C0.69612129 10.69535292 -1.00055691 14.15410109 -2.8125 17.625 C-3.29332031 18.56601562 -3.77414063 19.50703125 -4.26953125 20.4765625 C-6.20229382 23.29499279 -7.97825485 24.47117138 -11 26 C-9.03996839 20.74588386 -6.42161196 15.84739357 -3.83398438 10.8828125 C-1.9877058 7.26533507 -0.51854373 4.08452907 0 0 Z " fill="#EFA6A3" transform="translate(185,304)"/>
<path d="M0 0 C-2.49064888 0.68707555 -4.37886292 1 -7 1 C-7 1.66 -7 2.32 -7 3 C-11.875 2.125 -11.875 2.125 -13 1 C-14.33802186 0.77486899 -15.68573023 0.60639193 -17.03515625 0.46484375 C-17.84404297 0.37783203 -18.65292969 0.29082031 -19.48632812 0.20117188 C-20.33646484 0.11416016 -21.18660156 0.02714844 -22.0625 -0.0625 C-22.91650391 -0.15337891 -23.77050781 -0.24425781 -24.65039062 -0.33789062 C-26.76651535 -0.56250722 -28.88320894 -0.78175227 -31 -1 C-31 -1.33 -31 -1.66 -31 -2 C-20.0196095 -3.65741743 -10.69999298 -3.13717072 0 0 Z " fill="#7F3A3A" transform="translate(238,110)"/>
<path d="M0 0 C0 0.66 0 1.32 0 2 C-7.26 2 -14.52 2 -22 2 C-22.33 1.34 -22.66 0.68 -23 0 C-15.91618289 -2.36127237 -7.28175409 -1.35474495 0 0 Z " fill="#D79895" transform="translate(207,343)"/>
<path d="M0 0 C0 0.33 0 0.66 0 1 C-1.134375 1.12375 -2.26875 1.2475 -3.4375 1.375 C-5.2009375 1.684375 -5.2009375 1.684375 -7 2 C-7.33 2.66 -7.66 3.32 -8 4 C-9.64821244 5.03013277 -11.31503702 6.03114628 -13 7 C-14.87824891 8.87824891 -14.39102397 12.03935276 -14.5625 14.5625 C-14.68818359 16.35880859 -14.68818359 16.35880859 -14.81640625 18.19140625 C-14.87699219 19.11824219 -14.93757812 20.04507812 -15 21 C-15.33 21 -15.66 21 -16 21 C-16.33 18.36 -16.66 15.72 -17 13 C-17.99 13.495 -17.99 13.495 -19 14 C-17.21180342 8.93344304 -14.92364731 4.60303942 -10.75 1.125 C-6.98016023 -0.41720718 -4.05652128 -0.20626379 0 0 Z " fill="#E89995" transform="translate(149,309)"/>
<path d="M0 0 C0.66 0.33 1.32 0.66 2 1 C0.35 2.65 -1.3 4.3 -3 6 C-2.67 6.66 -2.34 7.32 -2 8 C-4.75078884 8.91692961 -6.35948913 9.10886083 -9.1875 9.0625 C-11.0746875 9.0315625 -11.0746875 9.0315625 -13 9 C-13 8.67 -13 8.34 -13 8 C-16.96 8 -20.92 8 -25 8 C-20.87792895 5.25195263 -16.87122011 5.67513263 -12.06835938 5.69726562 C-6.43365688 5.53386452 -4.00356081 3.95328061 0 0 Z " fill="#EF9F9A" transform="translate(153,127)"/>
<path d="M0 0 C0.66 0.33 1.32 0.66 2 1 C1.505 1.556875 1.01 2.11375 0.5 2.6875 C-1.22674629 4.89016976 -1.22674629 4.89016976 -1 7.5 C-1 10.6364632 -1.85588717 11.77342129 -4 14 C-5.66666667 14 -7.33333333 14 -9 14 C-8.566875 13.484375 -8.13375 12.96875 -7.6875 12.4375 C-5.82503611 9.92570027 -5.82503611 9.92570027 -4.5 6.4375 C-3.21586327 3.49468667 -2.43317405 1.96971232 0 0 Z " fill="#EFA5A1" transform="translate(68,300)"/>
<path d="M0 0 C0 0.33 0 0.66 0 1 C-2.97 1 -5.94 1 -9 1 C-9 1.66 -9 2.32 -9 3 C-15.93 2.67 -22.86 2.34 -30 2 C-30 1.67 -30 1.34 -30 1 C-19.98707052 -0.09945892 -10.05598201 -0.10055982 0 0 Z " fill="#EA9691" transform="translate(171,159)"/>
<path d="M0 0 C0.66 0.33 1.32 0.66 2 1 C1.175 1.53625 0.35 2.0725 -0.5 2.625 C-3.1112603 4.37827477 -5.69622038 6.16388837 -8.25 8 C-8.91515625 8.474375 -9.5803125 8.94875 -10.265625 9.4375 C-12.12138999 10.91524817 -12.12138999 10.91524817 -13.046875 13.125 C-14 15 -14 15 -17 16 C-14.18015282 9.33490667 -9.1158096 4.63760239 -3 1 C-2.01 0.67 -1.02 0.34 0 0 Z " fill="#ECA39F" transform="translate(113,111)"/>
<path d="M0 0 C6.27 0 12.54 0 19 0 C19 0.33 19 0.66 19 1 C14.71 1 10.42 1 6 1 C6 1.66 6 2.32 6 3 C4.02 3 2.04 3 0 3 C0 2.01 0 1.02 0 0 Z " fill="#954F4F" transform="translate(150,104)"/>
<path d="M0 0 C0 0.99 0 1.98 0 3 C-6.27 2.67 -12.54 2.34 -19 2 C-19 1.67 -19 1.34 -19 1 C-16.58343806 0.83168225 -14.16676951 0.66528738 -11.75 0.5 C-11.06808594 0.45230469 -10.38617188 0.40460938 -9.68359375 0.35546875 C-6.44268497 0.13521281 -3.2506634 0 0 0 Z " fill="#E09A97" transform="translate(150,104)"/>
<path d="M0 0 C1.49080078 0.16628906 1.49080078 0.16628906 3.01171875 0.3359375 C3.77097656 0.43132812 4.53023437 0.52671875 5.3125 0.625 C5.3125 1.285 5.3125 1.945 5.3125 2.625 C0.4791528 2.70833357 -3.92442563 2.57761487 -8.6875 1.625 C-5.1388865 -0.74074234 -4.1110475 -0.48365265 0 0 Z " fill="#AE7370" transform="translate(201.6875,342.375)"/>
<path d="M0 0 C2.66186665 0.38466281 5.32818911 0.68828873 8 1 C8 1.33 8 1.66 8 2 C5.91695462 2.05418326 3.83350232 2.09287551 1.75 2.125 C0.00976562 2.15980469 0.00976562 2.15980469 -1.765625 2.1953125 C-4.82786046 2.0103949 -6.44202751 1.60823023 -9 0 C-5.52140783 -0.86964804 -3.41372156 -0.97534902 0 0 Z " fill="#EB9E9B" transform="translate(200,292)"/>
<path d="M0 0 C0 0.66 0 1.32 0 2 C-2.72842061 3.36421031 -4.60953318 2.87807211 -7.625 2.5625 C-8.62789063 2.46066406 -9.63078125 2.35882813 -10.6640625 2.25390625 C-11.43492187 2.17011719 -12.20578125 2.08632813 -13 2 C-13 1.67 -13 1.34 -13 1 C-8.62426048 0.40667939 -4.42471556 -0.13827236 0 0 Z " fill="#582728" transform="translate(360,340)"/>
<path d="M0 0 C0.66 0.33 1.32 0.66 2 1 C1.06409496 2.1055189 0.12620142 3.20935453 -0.8125 4.3125 C-1.33457031 4.92738281 -1.85664063 5.54226562 -2.39453125 6.17578125 C-3.87172469 7.85424679 -5.40039131 9.43882034 -7 11 C-6.68232368 5.59950264 -3.80003673 3.47662935 0 0 Z " fill="#D2C3B4" transform="translate(472,244)"/>
<path d="M0 0 C0.6875 1.8125 0.6875 1.8125 1 4 C-0.0625 5.8125 -0.0625 5.8125 -2 7 C-5.1875 6.6875 -5.1875 6.6875 -8 6 C-7.01 5.34 -6.02 4.68 -5 4 C-3.32576317 2.67618483 -1.65788785 1.34423339 0 0 Z " fill="#EFA49F" transform="translate(111,167)"/>
<path d="M0 0 C0.66 0.33 1.32 0.66 2 1 C-0.64 3.64 -3.28 6.28 -6 9 C-6.33 8.34 -6.66 7.68 -7 7 C-4.78071806 4.09197539 -3.07030857 2.04687238 0 0 Z " fill="#C85C5D" transform="translate(225,260)"/>
<path d="M0 0 C2.0625 0.4375 2.0625 0.4375 4 1 C4.33 2.32 4.66 3.64 5 5 C4.34 4.67 3.68 4.34 3 4 C3 3.34 3 2.68 3 2 C1.02 3.32 -0.96 4.64 -3 6 C-1.125 1.125 -1.125 1.125 0 0 Z " fill="#CB5F5F" transform="translate(99,179)"/>
<path d="M0 0 C-1.44253657 3.36591866 -3.33264727 5.51047079 -6 8 C-5.62403791 5.21788056 -5.32681541 3.4120716 -3.5625 1.1875 C-2 0 -2 0 0 0 Z " fill="#C14B4B" transform="translate(102,181)"/>
<path d="M0 0 C0 0.99 0 1.98 0 3 C-3.3 2.67 -6.6 2.34 -10 2 C-10 1.67 -10 1.34 -10 1 C-6.56484998 0.37542727 -3.50935186 0 0 0 Z " fill="#EFA59F" transform="translate(84,298)"/>
<path d="M0 0 C0.66 0 1.32 0 2 0 C2 0.66 2 1.32 2 2 C2.99 2.66 3.98 3.32 5 4 C4.21625 4.28875 3.4325 4.5775 2.625 4.875 C-0.09671632 5.84912254 -0.09671632 5.84912254 -2 8 C-1.125 1.125 -1.125 1.125 0 0 Z " fill="#EFA6A1" transform="translate(175,297)"/>
<path d="M0 0 C-0.33 0.99 -0.66 1.98 -1 3 C-4.3 2.67 -7.6 2.34 -11 2 C-11 1.67 -11 1.34 -11 1 C-7.27569643 0.30710631 -3.78916254 -0.11144596 0 0 Z " fill="#944E4F" transform="translate(168,106)"/>
</svg>
